<svg xmlns="http://www.w3.org/2000/svg" width="760" height="300" viewBox="0 0 760 300">
  <rect width="100%" height="100%" fill="#fff"/>
  <style>
    .label { font-family: Georgia, Times New Roman, serif; fill: #111; font-size: 25px; }
    .small { font-family: Georgia, Times New Roman, serif; fill: #111; font-size: 20px; }
    .axis { stroke: #333333; stroke-width: 2; stroke-linecap: square; }
    .thin { stroke: #333333; stroke-width: 1.8; fill: none; }
    .grid { stroke: #767676; stroke-width: 1.7; }
  </style>
  <text x="28.0" y="55.0" class="label" text-anchor="start">Group 1</text>
  <text x="28.0" y="112.0" class="label" text-anchor="start">Group 2</text>
  <line x1="248.1" y1="48.0" x2="289.6" y2="48.0" class="thin"/>
  <line x1="455.8" y1="48.0" x2="538.8" y2="48.0" class="thin"/>
  <line x1="248.1" y1="32.0" x2="248.1" y2="64.0" class="thin"/>
  <line x1="538.8" y1="32.0" x2="538.8" y2="64.0" class="thin"/>
  <rect x="289.6" y="28.0" width="166.2" height="40" fill="#fff" stroke="#333333" stroke-width="1.8"/>
  <line x1="414.2" y1="28.0" x2="414.2" y2="68.0" class="thin"/>
  <line x1="289.6" y1="103.0" x2="331.2" y2="103.0" class="thin"/>
  <line x1="414.2" y1="103.0" x2="538.8" y2="103.0" class="thin"/>
  <line x1="289.6" y1="87.0" x2="289.6" y2="119.0" class="thin"/>
  <line x1="538.8" y1="87.0" x2="538.8" y2="119.0" class="thin"/>
  <rect x="331.2" y="83.0" width="83.1" height="40" fill="#fff" stroke="#333333" stroke-width="1.8"/>
  <line x1="372.7" y1="83.0" x2="372.7" y2="123.0" class="thin"/>
  <line x1="165.0" y1="178" x2="731.0" y2="178" class="axis"/>
  <line x1="206.5" y1="162.0" x2="206.5" y2="194.0" class="axis"/>
  <text x="206.5" y="223.0" class="label" text-anchor="middle">20</text>
  <line x1="248.1" y1="167.0" x2="248.1" y2="189.0" class="axis"/>
  <line x1="289.6" y1="162.0" x2="289.6" y2="194.0" class="axis"/>
  <text x="289.6" y="223.0" class="label" text-anchor="middle">22</text>
  <line x1="331.2" y1="167.0" x2="331.2" y2="189.0" class="axis"/>
  <line x1="372.7" y1="162.0" x2="372.7" y2="194.0" class="axis"/>
  <text x="372.7" y="223.0" class="label" text-anchor="middle">24</text>
  <line x1="414.2" y1="167.0" x2="414.2" y2="189.0" class="axis"/>
  <line x1="455.8" y1="162.0" x2="455.8" y2="194.0" class="axis"/>
  <text x="455.8" y="223.0" class="label" text-anchor="middle">26</text>
  <line x1="497.3" y1="167.0" x2="497.3" y2="189.0" class="axis"/>
  <line x1="538.8" y1="162.0" x2="538.8" y2="194.0" class="axis"/>
  <text x="538.8" y="223.0" class="label" text-anchor="middle">28</text>
  <line x1="580.4" y1="167.0" x2="580.4" y2="189.0" class="axis"/>
  <line x1="621.9" y1="162.0" x2="621.9" y2="194.0" class="axis"/>
  <text x="621.9" y="223.0" class="label" text-anchor="middle">30</text>
  <line x1="663.5" y1="167.0" x2="663.5" y2="189.0" class="axis"/>
  <line x1="705.0" y1="162.0" x2="705.0" y2="194.0" class="axis"/>
  <text x="705.0" y="223.0" class="label" text-anchor="middle">32</text>
  <text x="453.0" y="270.0" class="label" text-anchor="middle">Mass (kilograms)</text>
</svg>
