<svg xmlns="http://www.w3.org/2000/svg" width="760" height="280" viewBox="0 0 760 280">
  <rect width="100%" height="100%" fill="#fff"/>
  <style>
    .label { font-family: Georgia, Times New Roman, serif; fill: #111; font-size: 25px; }
    .small { font-family: Georgia, Times New Roman, serif; fill: #111; font-size: 20px; }
    .axis { stroke: #333333; stroke-width: 2; stroke-linecap: square; }
    .thin { stroke: #333333; stroke-width: 1.8; fill: none; }
    .grid { stroke: #767676; stroke-width: 1.7; }
  </style>
  <text x="195.0" y="36.0" class="label" text-anchor="middle">Data Set A</text>
  <line x1="45.0" y1="178" x2="316.0" y2="178" class="axis"/>
  <line x1="45.0" y1="165.0" x2="45.0" y2="191.0" class="axis"/>
  <text x="45.0" y="221.0" class="label" text-anchor="middle">10</text>
  <circle cx="45.0" cy="156.0" r="6.3" fill="#000"/>
  <line x1="88.0" y1="165.0" x2="88.0" y2="191.0" class="axis"/>
  <text x="88.0" y="221.0" class="label" text-anchor="middle">11</text>
  <circle cx="88.0" cy="156.0" r="6.3" fill="#000"/>
  <circle cx="88.0" cy="130.0" r="6.3" fill="#000"/>
  <circle cx="88.0" cy="104.0" r="6.3" fill="#000"/>
  <circle cx="88.0" cy="78.0" r="6.3" fill="#000"/>
  <line x1="131.0" y1="165.0" x2="131.0" y2="191.0" class="axis"/>
  <text x="131.0" y="221.0" class="label" text-anchor="middle">12</text>
  <circle cx="131.0" cy="156.0" r="6.3" fill="#000"/>
  <circle cx="131.0" cy="130.0" r="6.3" fill="#000"/>
  <line x1="174.0" y1="165.0" x2="174.0" y2="191.0" class="axis"/>
  <text x="174.0" y="221.0" class="label" text-anchor="middle">13</text>
  <circle cx="174.0" cy="156.0" r="6.3" fill="#000"/>
  <circle cx="174.0" cy="130.0" r="6.3" fill="#000"/>
  <circle cx="174.0" cy="104.0" r="6.3" fill="#000"/>
  <line x1="217.0" y1="165.0" x2="217.0" y2="191.0" class="axis"/>
  <text x="217.0" y="221.0" class="label" text-anchor="middle">14</text>
  <circle cx="217.0" cy="156.0" r="6.3" fill="#000"/>
  <circle cx="217.0" cy="130.0" r="6.3" fill="#000"/>
  <line x1="260.0" y1="165.0" x2="260.0" y2="191.0" class="axis"/>
  <text x="260.0" y="221.0" class="label" text-anchor="middle">15</text>
  <circle cx="260.0" cy="156.0" r="6.3" fill="#000"/>
  <circle cx="260.0" cy="130.0" r="6.3" fill="#000"/>
  <circle cx="260.0" cy="104.0" r="6.3" fill="#000"/>
  <circle cx="260.0" cy="78.0" r="6.3" fill="#000"/>
  <line x1="303.0" y1="165.0" x2="303.0" y2="191.0" class="axis"/>
  <text x="303.0" y="221.0" class="label" text-anchor="middle">16</text>
  <circle cx="303.0" cy="156.0" r="6.3" fill="#000"/>
  <text x="195.0" y="262.0" class="label" text-anchor="middle">Value</text>
  <text x="570.0" y="36.0" class="label" text-anchor="middle">Data Set B</text>
  <line x1="420.0" y1="178" x2="691.0" y2="178" class="axis"/>
  <line x1="420.0" y1="165.0" x2="420.0" y2="191.0" class="axis"/>
  <text x="420.0" y="221.0" class="label" text-anchor="middle">10</text>
  <circle cx="420.0" cy="156.0" r="6.3" fill="#000"/>
  <circle cx="420.0" cy="130.0" r="6.3" fill="#000"/>
  <line x1="463.0" y1="165.0" x2="463.0" y2="191.0" class="axis"/>
  <text x="463.0" y="221.0" class="label" text-anchor="middle">11</text>
  <circle cx="463.0" cy="156.0" r="6.3" fill="#000"/>
  <circle cx="463.0" cy="130.0" r="6.3" fill="#000"/>
  <circle cx="463.0" cy="104.0" r="6.3" fill="#000"/>
  <circle cx="463.0" cy="78.0" r="6.3" fill="#000"/>
  <line x1="506.0" y1="165.0" x2="506.0" y2="191.0" class="axis"/>
  <text x="506.0" y="221.0" class="label" text-anchor="middle">12</text>
  <circle cx="506.0" cy="156.0" r="6.3" fill="#000"/>
  <circle cx="506.0" cy="130.0" r="6.3" fill="#000"/>
  <line x1="549.0" y1="165.0" x2="549.0" y2="191.0" class="axis"/>
  <text x="549.0" y="221.0" class="label" text-anchor="middle">13</text>
  <circle cx="549.0" cy="156.0" r="6.3" fill="#000"/>
  <line x1="592.0" y1="165.0" x2="592.0" y2="191.0" class="axis"/>
  <text x="592.0" y="221.0" class="label" text-anchor="middle">14</text>
  <circle cx="592.0" cy="156.0" r="6.3" fill="#000"/>
  <circle cx="592.0" cy="130.0" r="6.3" fill="#000"/>
  <line x1="635.0" y1="165.0" x2="635.0" y2="191.0" class="axis"/>
  <text x="635.0" y="221.0" class="label" text-anchor="middle">15</text>
  <circle cx="635.0" cy="156.0" r="6.3" fill="#000"/>
  <circle cx="635.0" cy="130.0" r="6.3" fill="#000"/>
  <circle cx="635.0" cy="104.0" r="6.3" fill="#000"/>
  <circle cx="635.0" cy="78.0" r="6.3" fill="#000"/>
  <line x1="678.0" y1="165.0" x2="678.0" y2="191.0" class="axis"/>
  <text x="678.0" y="221.0" class="label" text-anchor="middle">16</text>
  <circle cx="678.0" cy="156.0" r="6.3" fill="#000"/>
  <circle cx="678.0" cy="130.0" r="6.3" fill="#000"/>
  <text x="570.0" y="262.0" class="label" text-anchor="middle">Value</text>
</svg>
