<svg xmlns="http://www.w3.org/2000/svg" width="840" height="640" viewBox="0 0 840 640">
  <rect width="100%" height="100%" fill="#fff"/>
  <style>
    .label { font-family: Georgia, Times New Roman, serif; fill: #111; font-size: 25px; }
    .small { font-family: Georgia, Times New Roman, serif; fill: #111; font-size: 20px; }
    .axis { stroke: #333333; stroke-width: 2; stroke-linecap: square; }
    .thin { stroke: #333333; stroke-width: 1.8; fill: none; }
    .grid { stroke: #767676; stroke-width: 1.7; }
  </style>
  <defs><marker id="arrow" markerWidth="8" markerHeight="8" refX="7" refY="4" orient="auto"><path d="M0,0 L8,4 L0,8 Z" fill="#222"/></marker></defs>
  <line x1="118.0" y1="505.0" x2="794.0" y2="505.0" class="grid"/>
  <text x="100.0" y="513.0" class="label" text-anchor="end">0</text>
  <line x1="118.0" y1="432.5" x2="794.0" y2="432.5" class="grid"/>
  <text x="100.0" y="440.5" class="label" text-anchor="end">10</text>
  <line x1="118.0" y1="360.0" x2="794.0" y2="360.0" class="grid"/>
  <text x="100.0" y="368.0" class="label" text-anchor="end">20</text>
  <line x1="118.0" y1="287.5" x2="794.0" y2="287.5" class="grid"/>
  <text x="100.0" y="295.5" class="label" text-anchor="end">30</text>
  <line x1="118.0" y1="215.0" x2="794.0" y2="215.0" class="grid"/>
  <text x="100.0" y="223.0" class="label" text-anchor="end">40</text>
  <line x1="118.0" y1="142.5" x2="794.0" y2="142.5" class="grid"/>
  <text x="100.0" y="150.5" class="label" text-anchor="end">50</text>
  <line x1="118.0" y1="70.0" x2="794.0" y2="70.0" class="grid"/>
  <text x="100.0" y="78.0" class="label" text-anchor="end">60</text>
  <line x1="118.0" y1="70.0" x2="118.0" y2="525.0" class="axis"/>
  <line x1="110.0" y1="505.0" x2="798.0" y2="505.0" class="axis"/>
  <polyline points="118.0,215.0 174.3,418.0 230.7,414.4 287.0,407.1 343.3,432.5 399.7,468.8 456.0,450.6 512.3,99.0 568.7,432.5 625.0,490.5 681.3,483.2 737.7,273.0 794.0,374.5" fill="none" stroke="#222" stroke-width="3.2" stroke-linejoin="round" stroke-linecap="round"/>
  <circle cx="118.0" cy="215.0" r="7.5" fill="#222"/>
  <circle cx="174.3" cy="418.0" r="7.5" fill="#222"/>
  <circle cx="230.7" cy="414.4" r="7.5" fill="#222"/>
  <circle cx="287.0" cy="407.1" r="7.5" fill="#222"/>
  <circle cx="343.3" cy="432.5" r="7.5" fill="#222"/>
  <circle cx="399.7" cy="468.8" r="7.5" fill="#222"/>
  <circle cx="456.0" cy="450.6" r="7.5" fill="#222"/>
  <circle cx="512.3" cy="99.0" r="7.5" fill="#222"/>
  <circle cx="568.7" cy="432.5" r="7.5" fill="#222"/>
  <circle cx="625.0" cy="490.5" r="7.5" fill="#222"/>
  <circle cx="681.3" cy="483.2" r="7.5" fill="#222"/>
  <circle cx="737.7" cy="273.0" r="7.5" fill="#222"/>
  <circle cx="794.0" cy="374.5" r="7.5" fill="#222"/>
  <line x1="118.0" y1="493.0" x2="118.0" y2="525.0" class="axis"/>
  <text x="114.0" y="571.0" class="label" text-anchor="middle" transform="rotate(-45 114.0 571.0)">2003</text>
  <line x1="174.3" y1="493.0" x2="174.3" y2="525.0" class="axis"/>
  <text x="170.3" y="571.0" class="label" text-anchor="middle" transform="rotate(-45 170.3 571.0)">2004</text>
  <line x1="230.7" y1="493.0" x2="230.7" y2="525.0" class="axis"/>
  <text x="226.7" y="571.0" class="label" text-anchor="middle" transform="rotate(-45 226.7 571.0)">2005</text>
  <line x1="287.0" y1="493.0" x2="287.0" y2="525.0" class="axis"/>
  <text x="283.0" y="571.0" class="label" text-anchor="middle" transform="rotate(-45 283.0 571.0)">2006</text>
  <line x1="343.3" y1="493.0" x2="343.3" y2="525.0" class="axis"/>
  <text x="339.3" y="571.0" class="label" text-anchor="middle" transform="rotate(-45 339.3 571.0)">2007</text>
  <line x1="399.7" y1="493.0" x2="399.7" y2="525.0" class="axis"/>
  <text x="395.7" y="571.0" class="label" text-anchor="middle" transform="rotate(-45 395.7 571.0)">2008</text>
  <line x1="456.0" y1="493.0" x2="456.0" y2="525.0" class="axis"/>
  <text x="452.0" y="571.0" class="label" text-anchor="middle" transform="rotate(-45 452.0 571.0)">2009</text>
  <line x1="512.3" y1="493.0" x2="512.3" y2="525.0" class="axis"/>
  <text x="508.3" y="571.0" class="label" text-anchor="middle" transform="rotate(-45 508.3 571.0)">2010</text>
  <line x1="568.7" y1="493.0" x2="568.7" y2="525.0" class="axis"/>
  <text x="564.7" y="571.0" class="label" text-anchor="middle" transform="rotate(-45 564.7 571.0)">2011</text>
  <line x1="625.0" y1="493.0" x2="625.0" y2="525.0" class="axis"/>
  <text x="621.0" y="571.0" class="label" text-anchor="middle" transform="rotate(-45 621.0 571.0)">2012</text>
  <line x1="681.3" y1="493.0" x2="681.3" y2="525.0" class="axis"/>
  <text x="677.3" y="571.0" class="label" text-anchor="middle" transform="rotate(-45 677.3 571.0)">2013</text>
  <line x1="737.7" y1="493.0" x2="737.7" y2="525.0" class="axis"/>
  <text x="733.7" y="571.0" class="label" text-anchor="middle" transform="rotate(-45 733.7 571.0)">2014</text>
  <line x1="794.0" y1="493.0" x2="794.0" y2="525.0" class="axis"/>
  <text x="790.0" y="571.0" class="label" text-anchor="middle" transform="rotate(-45 790.0 571.0)">2015</text>
  <text x="215.0" y="197.0" class="label" text-anchor="middle">(2003, 40)</text>
  <text x="398.0" y="378.0" class="label" text-anchor="middle">(2007, 10)</text>
  <line x1="430.0" y1="367.2" x2="351.3" y2="424.5" stroke="#222" stroke-width="2" marker-end="url(#arrow)"/>
  <text x="42.0" y="292.0" class="label" text-anchor="middle" transform="rotate(-90 42 292)">Annual snowfall (inches)</text>
  <text x="457.0" y="622.0" class="label" text-anchor="middle">Year</text>
</svg>
