<svg xmlns="http://www.w3.org/2000/svg" width="320" height="260" viewBox="0 0 320 260">
  <rect width="100%" height="100%" fill="#fff"/>
  <style>
    .label { font-family: Georgia, Times New Roman, serif; fill: #111; font-size: 25px; }
    .small { font-family: Georgia, Times New Roman, serif; fill: #111; font-size: 20px; }
    .axis { stroke: #333333; stroke-width: 2; stroke-linecap: square; }
    .thin { stroke: #333333; stroke-width: 1.8; fill: none; }
    .grid { stroke: #767676; stroke-width: 1.7; }
  </style>
  <text x="185.0" y="33.0" class="label" text-anchor="middle">Data Set A</text>
  <line x1="25.0" y1="195" x2="298.0" y2="195" class="axis"/>
  <line x1="50.0" y1="182.0" x2="50.0" y2="208.0" class="axis"/>
  <text x="50.0" y="238.0" class="label" text-anchor="middle">22</text>
  <circle cx="50.0" cy="171.0" r="6.2" fill="#000"/>
  <circle cx="50.0" cy="147.0" r="6.2" fill="#000"/>
  <circle cx="50.0" cy="123.0" r="6.2" fill="#000"/>
  <circle cx="50.0" cy="99.0" r="6.2" fill="#000"/>
  <circle cx="50.0" cy="75.0" r="6.2" fill="#000"/>
  <line x1="105.0" y1="182.0" x2="105.0" y2="208.0" class="axis"/>
  <text x="105.0" y="238.0" class="label" text-anchor="middle">23</text>
  <circle cx="105.0" cy="171.0" r="6.2" fill="#000"/>
  <circle cx="105.0" cy="147.0" r="6.2" fill="#000"/>
  <circle cx="105.0" cy="123.0" r="6.2" fill="#000"/>
  <circle cx="105.0" cy="99.0" r="6.2" fill="#000"/>
  <line x1="160.0" y1="182.0" x2="160.0" y2="208.0" class="axis"/>
  <text x="160.0" y="238.0" class="label" text-anchor="middle">24</text>
  <circle cx="160.0" cy="171.0" r="6.2" fill="#000"/>
  <circle cx="160.0" cy="147.0" r="6.2" fill="#000"/>
  <circle cx="160.0" cy="123.0" r="6.2" fill="#000"/>
  <line x1="215.0" y1="182.0" x2="215.0" y2="208.0" class="axis"/>
  <text x="215.0" y="238.0" class="label" text-anchor="middle">25</text>
  <circle cx="215.0" cy="171.0" r="6.2" fill="#000"/>
  <circle cx="215.0" cy="147.0" r="6.2" fill="#000"/>
  <line x1="270.0" y1="182.0" x2="270.0" y2="208.0" class="axis"/>
  <text x="270.0" y="238.0" class="label" text-anchor="middle">26</text>
  <circle cx="270.0" cy="171.0" r="6.2" fill="#000"/>
</svg>
