<svg xmlns="http://www.w3.org/2000/svg" width="760" height="390" viewBox="0 0 760 390">
  <rect width="100%" height="100%" fill="#fff"/>
  <style>
    .label { font-family: Georgia, Times New Roman, serif; fill: #111; font-size: 25px; }
    .small { font-family: Georgia, Times New Roman, serif; fill: #111; font-size: 20px; }
    .axis { stroke: #333333; stroke-width: 2; stroke-linecap: square; }
    .thin { stroke: #333333; stroke-width: 1.8; fill: none; }
    .grid { stroke: #767676; stroke-width: 1.7; }
  </style>
  <text x="190.0" y="34.0" class="label" text-anchor="middle">Data Set A</text>
  <text x="64.0" y="302.0" class="label" text-anchor="end">0</text>
  <line x1="80.0" y1="295.0" x2="290.0" y2="295.0" class="grid"/>
  <line x1="80.0" y1="275.6" x2="290.0" y2="275.6" class="grid"/>
  <text x="64.0" y="263.2" class="label" text-anchor="end">2</text>
  <line x1="80.0" y1="256.2" x2="290.0" y2="256.2" class="grid"/>
  <line x1="80.0" y1="236.8" x2="290.0" y2="236.8" class="grid"/>
  <text x="64.0" y="224.3" class="label" text-anchor="end">4</text>
  <line x1="80.0" y1="217.3" x2="290.0" y2="217.3" class="grid"/>
  <line x1="80.0" y1="197.9" x2="290.0" y2="197.9" class="grid"/>
  <text x="64.0" y="185.5" class="label" text-anchor="end">6</text>
  <line x1="80.0" y1="178.5" x2="290.0" y2="178.5" class="grid"/>
  <line x1="80.0" y1="159.1" x2="290.0" y2="159.1" class="grid"/>
  <text x="64.0" y="146.7" class="label" text-anchor="end">8</text>
  <line x1="80.0" y1="139.7" x2="290.0" y2="139.7" class="grid"/>
  <line x1="80.0" y1="120.2" x2="290.0" y2="120.2" class="grid"/>
  <text x="64.0" y="107.8" class="label" text-anchor="end">10</text>
  <line x1="80.0" y1="100.8" x2="290.0" y2="100.8" class="grid"/>
  <line x1="80.0" y1="81.4" x2="290.0" y2="81.4" class="grid"/>
  <text x="64.0" y="69.0" class="label" text-anchor="end">12</text>
  <line x1="80.0" y1="62.0" x2="290.0" y2="62.0" class="grid"/>
  <line x1="80.0" y1="62.0" x2="80.0" y2="295.0" class="axis"/>
  <line x1="80.0" y1="287.0" x2="80.0" y2="310.0" class="axis"/>
  <text x="80.0" y="338.0" class="label" text-anchor="middle">10</text>
  <line x1="123.0" y1="287.0" x2="123.0" y2="310.0" class="axis"/>
  <text x="123.0" y="338.0" class="label" text-anchor="middle">20</text>
  <line x1="166.0" y1="287.0" x2="166.0" y2="310.0" class="axis"/>
  <text x="166.0" y="338.0" class="label" text-anchor="middle">30</text>
  <line x1="209.0" y1="287.0" x2="209.0" y2="310.0" class="axis"/>
  <text x="209.0" y="338.0" class="label" text-anchor="middle">40</text>
  <line x1="252.0" y1="287.0" x2="252.0" y2="310.0" class="axis"/>
  <text x="252.0" y="338.0" class="label" text-anchor="middle">50</text>
  <line x1="295.0" y1="287.0" x2="295.0" y2="310.0" class="axis"/>
  <text x="295.0" y="338.0" class="label" text-anchor="middle">60</text>
  <rect x="123.0" y="236.8" width="43.0" height="58.2" fill="#b6b6b6" stroke="#333333" stroke-width="1.6"/>
  <rect x="166.0" y="217.3" width="43.0" height="77.7" fill="#b6b6b6" stroke="#333333" stroke-width="1.6"/>
  <rect x="209.0" y="159.1" width="43.0" height="135.9" fill="#b6b6b6" stroke="#333333" stroke-width="1.6"/>
  <rect x="252.0" y="120.2" width="43.0" height="174.8" fill="#b6b6b6" stroke="#333333" stroke-width="1.6"/>
  <text x="22.0" y="178.0" class="label" text-anchor="middle" transform="rotate(-90 22.0 178)">Frequency</text>
  <text x="185.0" y="380.0" class="label" text-anchor="middle">Integer</text>
  <text x="570.0" y="34.0" class="label" text-anchor="middle">Data Set B</text>
  <text x="444.0" y="302.0" class="label" text-anchor="end">0</text>
  <line x1="460.0" y1="295.0" x2="670.0" y2="295.0" class="grid"/>
  <line x1="460.0" y1="275.6" x2="670.0" y2="275.6" class="grid"/>
  <text x="444.0" y="263.2" class="label" text-anchor="end">2</text>
  <line x1="460.0" y1="256.2" x2="670.0" y2="256.2" class="grid"/>
  <line x1="460.0" y1="236.8" x2="670.0" y2="236.8" class="grid"/>
  <text x="444.0" y="224.3" class="label" text-anchor="end">4</text>
  <line x1="460.0" y1="217.3" x2="670.0" y2="217.3" class="grid"/>
  <line x1="460.0" y1="197.9" x2="670.0" y2="197.9" class="grid"/>
  <text x="444.0" y="185.5" class="label" text-anchor="end">6</text>
  <line x1="460.0" y1="178.5" x2="670.0" y2="178.5" class="grid"/>
  <line x1="460.0" y1="159.1" x2="670.0" y2="159.1" class="grid"/>
  <text x="444.0" y="146.7" class="label" text-anchor="end">8</text>
  <line x1="460.0" y1="139.7" x2="670.0" y2="139.7" class="grid"/>
  <line x1="460.0" y1="120.2" x2="670.0" y2="120.2" class="grid"/>
  <text x="444.0" y="107.8" class="label" text-anchor="end">10</text>
  <line x1="460.0" y1="100.8" x2="670.0" y2="100.8" class="grid"/>
  <line x1="460.0" y1="81.4" x2="670.0" y2="81.4" class="grid"/>
  <text x="444.0" y="69.0" class="label" text-anchor="end">12</text>
  <line x1="460.0" y1="62.0" x2="670.0" y2="62.0" class="grid"/>
  <line x1="460.0" y1="62.0" x2="460.0" y2="295.0" class="axis"/>
  <line x1="460.0" y1="287.0" x2="460.0" y2="310.0" class="axis"/>
  <text x="460.0" y="338.0" class="label" text-anchor="middle">10</text>
  <line x1="503.0" y1="287.0" x2="503.0" y2="310.0" class="axis"/>
  <text x="503.0" y="338.0" class="label" text-anchor="middle">20</text>
  <line x1="546.0" y1="287.0" x2="546.0" y2="310.0" class="axis"/>
  <text x="546.0" y="338.0" class="label" text-anchor="middle">30</text>
  <line x1="589.0" y1="287.0" x2="589.0" y2="310.0" class="axis"/>
  <text x="589.0" y="338.0" class="label" text-anchor="middle">40</text>
  <line x1="632.0" y1="287.0" x2="632.0" y2="310.0" class="axis"/>
  <text x="632.0" y="338.0" class="label" text-anchor="middle">50</text>
  <line x1="675.0" y1="287.0" x2="675.0" y2="310.0" class="axis"/>
  <text x="675.0" y="338.0" class="label" text-anchor="middle">60</text>
  <rect x="460.0" y="236.8" width="43.0" height="58.2" fill="#b6b6b6" stroke="#333333" stroke-width="1.6"/>
  <rect x="503.0" y="217.3" width="43.0" height="77.7" fill="#b6b6b6" stroke="#333333" stroke-width="1.6"/>
  <rect x="546.0" y="159.1" width="43.0" height="135.9" fill="#b6b6b6" stroke="#333333" stroke-width="1.6"/>
  <rect x="589.0" y="120.2" width="43.0" height="174.8" fill="#b6b6b6" stroke="#333333" stroke-width="1.6"/>
  <text x="402.0" y="178.0" class="label" text-anchor="middle" transform="rotate(-90 402.0 178)">Frequency</text>
  <text x="565.0" y="380.0" class="label" text-anchor="middle">Integer</text>
</svg>
