<svg xmlns="http://www.w3.org/2000/svg" viewBox="0 0 420 320" role="img" aria-label="Graph of y equals negative one fourth x plus 2">
  <defs>
    <style>
      .grid { stroke: #e3e3e3; stroke-width: 1; }
      .axis { stroke: #2d2d2d; stroke-width: 1.6; }
      .label { font-family: "Helvetica Neue", Arial, sans-serif; font-size: 13px; fill: #333; }
      .line { stroke: #c74440; stroke-width: 2.8; stroke-linecap: round; }
      .tip { font-family: "Times New Roman", Georgia, serif; font-size: 13px; fill: #222; }
    </style>
  </defs>
  <rect width="420" height="320" fill="#fff"/>

  <g>
    <line x1="12" y1="264" x2="408" y2="264" class="grid"/>
    <line x1="12" y1="240" x2="408" y2="240" class="grid"/>
    <line x1="12" y1="216" x2="408" y2="216" class="grid"/>
    <line x1="12" y1="192" x2="408" y2="192" class="grid"/>
    <line x1="12" y1="168" x2="408" y2="168" class="grid"/>
    <line x1="12" y1="144" x2="408" y2="144" class="grid"/>
    <line x1="12" y1="120" x2="408" y2="120" class="grid"/>
    <line x1="12" y1="96" x2="408" y2="96" class="grid"/>
    <line x1="12" y1="72" x2="408" y2="72" class="grid"/>
    <line x1="12" y1="48" x2="408" y2="48" class="grid"/>
    <line x1="12" y1="288" x2="408" y2="288" class="grid"/>
    <line x1="12" y1="12" x2="12" y2="300" class="grid"/>
    <line x1="36" y1="12" x2="36" y2="300" class="grid"/>
    <line x1="60" y1="12" x2="60" y2="300" class="grid"/>
    <line x1="84" y1="12" x2="84" y2="300" class="grid"/>
    <line x1="108" y1="12" x2="108" y2="300" class="grid"/>
    <line x1="132" y1="12" x2="132" y2="300" class="grid"/>
    <line x1="156" y1="12" x2="156" y2="300" class="grid"/>
    <line x1="180" y1="12" x2="180" y2="300" class="grid"/>
    <line x1="204" y1="12" x2="204" y2="300" class="grid"/>
    <line x1="228" y1="12" x2="228" y2="300" class="grid"/>
    <line x1="252" y1="12" x2="252" y2="300" class="grid"/>
    <line x1="276" y1="12" x2="276" y2="300" class="grid"/>
    <line x1="300" y1="12" x2="300" y2="300" class="grid"/>
    <line x1="324" y1="12" x2="324" y2="300" class="grid"/>
    <line x1="348" y1="12" x2="348" y2="300" class="grid"/>
    <line x1="372" y1="12" x2="372" y2="300" class="grid"/>
    <line x1="396" y1="12" x2="396" y2="300" class="grid"/>
  </g>

  <line x1="12" y1="264" x2="408" y2="264" class="axis"/>
  <line x1="132" y1="12" x2="132" y2="300" class="axis"/>

  <text x="8" y="268" class="label">0</text>
  <text x="118" y="278" class="label">-5</text>
  <text x="244" y="278" class="label">5</text>
  <text x="112" y="128" class="label">5</text>

  <!-- y = -1/4 x + 2 -->
  <line x1="12" y1="186" x2="324" y2="264" class="line"/>

  <circle cx="132" cy="216" r="5.5" fill="#111"/>
  <rect x="148" y="202" width="58" height="26" rx="4" fill="#fff" stroke="#ccc" stroke-width="1"/>
  <text x="156" y="219" class="tip">(0, 2)</text>
</svg>
