<svg xmlns="http://www.w3.org/2000/svg" viewBox="0 0 640 320" role="img" aria-label="Desmos graph of linear function transformations">
  <defs>
    <style>
      .panel { fill: #fff; stroke: #d8d8d8; stroke-width: 1; }
      .eq { font-family: "Helvetica Neue", Arial, sans-serif; font-size: 14px; fill: #333; }
      .grid-major { stroke: #e6e6e6; stroke-width: 1; }
      .grid-minor { stroke: #f2f2f2; stroke-width: 0.6; }
      .axis-label { font-family: "Helvetica Neue", Arial, sans-serif; font-size: 11px; fill: #666; }
      .dot { fill: #888; }
    </style>
    <clipPath id="plot">
      <rect x="198" y="18" width="430" height="284"/>
    </clipPath>
  </defs>
  <rect width="640" height="320" fill="#fff"/>

  <rect x="0" y="0" width="196" height="320" class="panel"/>
  <line x1="196" y1="0" x2="196" y2="320" stroke="#d8d8d8"/>

  <circle cx="22" cy="34" r="10" fill="#c74440"/>
  <path d="M16 34c2-3 4-3 6 0s4 3 6 0" fill="none" stroke="#fff" stroke-width="1.4" stroke-linecap="round"/>
  <text x="40" y="38" class="eq">f (x) = 2x + 1</text>

  <circle cx="22" cy="78" r="10" fill="#2d70b3"/>
  <path d="M16 78c2-3 4-3 6 0s4 3 6 0" fill="none" stroke="#fff" stroke-width="1.4" stroke-linecap="round"/>
  <text x="40" y="82" class="eq">f (x) + 3</text>

  <circle cx="22" cy="122" r="10" fill="#388c46"/>
  <path d="M16 122c2-3 4-3 6 0s4 3 6 0" fill="none" stroke="#fff" stroke-width="1.4" stroke-linecap="round"/>
  <text x="40" y="126" class="eq">f (x - 2)</text>

  <rect x="4" y="148" width="188" height="40" rx="4" fill="#eef4ff" stroke="#2d70b3" stroke-width="1.2"/>
  <circle cx="22" cy="168" r="10" fill="#6042a6"/>
  <path d="M16 168c2-3 4-3 6 0s4 3 6 0" fill="none" stroke="#fff" stroke-width="1.4" stroke-linecap="round"/>
  <text x="40" y="172" class="eq">f (-x)</text>
  <rect x="118" y="160" width="1.5" height="16" fill="#2d70b3"/>

  <g clip-path="url(#plot)">
    <g class="grid-minor">
      <line x1="198" y1="18" x2="628" y2="18"/>
      <line x1="198" y1="40" x2="628" y2="40"/>
      <line x1="198" y1="62" x2="628" y2="62"/>
      <line x1="198" y1="84" x2="628" y2="84"/>
      <line x1="198" y1="106" x2="628" y2="106"/>
      <line x1="198" y1="128" x2="628" y2="128"/>
      <line x1="198" y1="150" x2="628" y2="150"/>
      <line x1="198" y1="172" x2="628" y2="172"/>
      <line x1="198" y1="194" x2="628" y2="194"/>
      <line x1="198" y1="216" x2="628" y2="216"/>
      <line x1="198" y1="238" x2="628" y2="238"/>
      <line x1="198" y1="260" x2="628" y2="260"/>
      <line x1="198" y1="282" x2="628" y2="282"/>
      <line x1="220" y1="18" x2="220" y2="302"/>
      <line x1="242" y1="18" x2="242" y2="302"/>
      <line x1="264" y1="18" x2="264" y2="302"/>
      <line x1="286" y1="18" x2="286" y2="302"/>
      <line x1="308" y1="18" x2="308" y2="302"/>
      <line x1="330" y1="18" x2="330" y2="302"/>
      <line x1="352" y1="18" x2="352" y2="302"/>
      <line x1="374" y1="18" x2="374" y2="302"/>
      <line x1="396" y1="18" x2="396" y2="302"/>
      <line x1="418" y1="18" x2="418" y2="302"/>
      <line x1="440" y1="18" x2="440" y2="302"/>
      <line x1="462" y1="18" x2="462" y2="302"/>
      <line x1="484" y1="18" x2="484" y2="302"/>
      <line x1="506" y1="18" x2="506" y2="302"/>
      <line x1="528" y1="18" x2="528" y2="302"/>
      <line x1="550" y1="18" x2="550" y2="302"/>
      <line x1="572" y1="18" x2="572" y2="302"/>
      <line x1="594" y1="18" x2="594" y2="302"/>
      <line x1="616" y1="18" x2="616" y2="302"/>
    </g>
    <g class="grid-major">
      <line x1="198" y1="62" x2="628" y2="62"/>
      <line x1="198" y1="106" x2="628" y2="106"/>
      <line x1="198" y1="150" x2="628" y2="150"/>
      <line x1="198" y1="194" x2="628" y2="194"/>
      <line x1="198" y1="238" x2="628" y2="238"/>
      <line x1="198" y1="282" x2="628" y2="282"/>
      <line x1="242" y1="18" x2="242" y2="302"/>
      <line x1="286" y1="18" x2="286" y2="302"/>
      <line x1="330" y1="18" x2="330" y2="302"/>
      <line x1="374" y1="18" x2="374" y2="302"/>
      <line x1="418" y1="18" x2="418" y2="302"/>
      <line x1="462" y1="18" x2="462" y2="302"/>
      <line x1="506" y1="18" x2="506" y2="302"/>
      <line x1="550" y1="18" x2="550" y2="302"/>
      <line x1="594" y1="18" x2="594" y2="302"/>
    </g>

    <line x1="385" y1="194" x2="473" y2="18" stroke="#c74440" stroke-width="2.6" stroke-linecap="round"/>
    <line x1="352" y1="194" x2="440" y2="18" stroke="#2d70b3" stroke-width="2.4" stroke-linecap="round"/>
    <line x1="429" y1="194" x2="517" y2="18" stroke="#388c46" stroke-width="2.4" stroke-linecap="round"/>
    <line x1="363" y1="18" x2="451" y2="194" stroke="#6042a6" stroke-width="2.4" stroke-linecap="round"/>

    <circle cx="401.5" cy="95" r="3.5" class="dot"/>
    <circle cx="418" cy="128" r="3.5" class="dot"/>
    <circle cx="429" cy="150" r="3.5" class="dot"/>
    <circle cx="440" cy="172" r="3.5" class="dot"/>
  </g>

  <text x="236" y="164" class="axis-label">-10</text>
  <text x="412" y="164" class="axis-label">0</text>
  <text x="506" y="164" class="axis-label">4</text>
  <text x="588" y="164" class="axis-label">8</text>
  <text x="424" y="24" class="axis-label">6</text>
  <text x="424" y="68" class="axis-label">4</text>
  <text x="424" y="112" class="axis-label">2</text>
</svg>
