<svg xmlns="http://www.w3.org/2000/svg" viewBox="0 0 216 128" role="img" aria-label="Case C: limit exists, f(c) undefined" class="ap-graph-svg ap-graph-svg--compact">
<rect width="216" height="128" fill="#faf8ff" rx="8"/>
<line x1="26.0" y1="14" x2="26.0" y2="106" stroke="#e8e4ff" stroke-width="1"/>
<line x1="62.0" y1="14" x2="62.0" y2="106" stroke="#e8e4ff" stroke-width="1"/>
<line x1="98.0" y1="14" x2="98.0" y2="106" stroke="#e8e4ff" stroke-width="1"/>
<line x1="134.0" y1="14" x2="134.0" y2="106" stroke="#e8e4ff" stroke-width="1"/>
<line x1="170.0" y1="14" x2="170.0" y2="106" stroke="#e8e4ff" stroke-width="1"/>
<line x1="206.0" y1="14" x2="206.0" y2="106" stroke="#e8e4ff" stroke-width="1"/>
<line x1="26" y1="14.0" x2="206" y2="14.0" stroke="#e8e4ff" stroke-width="1"/>
<line x1="26" y1="37.0" x2="206" y2="37.0" stroke="#e8e4ff" stroke-width="1"/>
<line x1="26" y1="60.0" x2="206" y2="60.0" stroke="#e8e4ff" stroke-width="1"/>
<line x1="26" y1="83.0" x2="206" y2="83.0" stroke="#e8e4ff" stroke-width="1"/>
<line x1="26" y1="106.0" x2="206" y2="106.0" stroke="#e8e4ff" stroke-width="1"/>
<line x1="26" y1="106" x2="206" y2="106" stroke="#4c3d99" stroke-width="1.25"/>
<line x1="26" y1="14" x2="26" y2="106" stroke="#4c3d99" stroke-width="1.25"/>
<line x1="26.0" y1="106.0" x2="26.0" y2="110.0" stroke="#4c3d99" stroke-width="1"/>
<text x="26.0" y="121.0" text-anchor="middle" font-size="8" fill="#4c3d99">0</text>
<line x1="86.0" y1="106.0" x2="86.0" y2="110.0" stroke="#4c3d99" stroke-width="1"/>
<text x="86.0" y="121.0" text-anchor="middle" font-size="8" fill="#4c3d99">2</text>
<line x1="146.0" y1="106.0" x2="146.0" y2="110.0" stroke="#4c3d99" stroke-width="1"/>
<text x="146.0" y="121.0" text-anchor="middle" font-size="8" fill="#4c3d99">4</text>
<line x1="206.0" y1="106.0" x2="206.0" y2="110.0" stroke="#4c3d99" stroke-width="1"/>
<text x="206.0" y="121.0" text-anchor="middle" font-size="8" fill="#4c3d99">6</text>
<line x1="22.0" y1="106.0" x2="26.0" y2="106.0" stroke="#4c3d99" stroke-width="1"/>
<text x="20.0" y="110.0" text-anchor="end" font-size="8" fill="#4c3d99">0</text>
<line x1="22.0" y1="60.0" x2="26.0" y2="60.0" stroke="#4c3d99" stroke-width="1"/>
<text x="20.0" y="64.0" text-anchor="end" font-size="8" fill="#4c3d99">5</text>
<line x1="22.0" y1="14.0" x2="26.0" y2="14.0" stroke="#4c3d99" stroke-width="1"/>
<text x="20.0" y="18.0" text-anchor="end" font-size="8" fill="#4c3d99">10</text>
<polyline points="41.00,83.00 42.25,82.62 43.50,82.23 44.75,81.85 46.00,81.47 47.25,81.08 48.50,80.70 49.75,80.32 51.00,79.93 52.25,79.55 53.50,79.17 54.75,78.78 56.00,78.40 57.25,78.02 58.50,77.63 59.75,77.25 61.00,76.87 62.25,76.48 63.50,76.10 64.75,75.72 66.00,75.33 67.25,74.95 68.50,74.57 69.75,74.18 71.00,73.80 72.25,73.42 73.50,73.03 74.75,72.65 76.00,72.27 77.25,71.88 78.50,71.50 79.75,71.12 81.00,70.73 82.25,70.35 83.50,69.97 84.75,69.58 86.00,69.20 87.25,68.82 88.50,68.43 89.75,68.05 91.00,67.67 92.25,67.28 93.50,66.90 94.75,66.52 96.00,66.13 97.25,65.75 98.50,65.37 99.75,64.98 101.00,64.60 102.25,64.22 103.50,63.83 104.75,63.45 106.00,63.07 107.25,62.68 108.50,62.30 109.75,61.92 111.00,61.53 112.25,61.15 113.50,60.77 114.75,60.38 116.00,60.00 117.25,59.62 118.50,59.23 119.75,58.85 121.00,58.47 122.25,58.08 123.50,57.70 124.75,57.32 126.00,56.93 127.25,56.55 128.50,56.17 129.75,55.78 131.00,55.40 132.25,55.02 133.50,54.63 134.75,54.25 136.00,53.87 137.25,53.48 138.50,53.10 139.75,52.72 141.00,52.33 142.25,51.95 143.50,51.57 144.75,51.18 146.00,50.80 147.25,50.42 148.50,50.03 149.75,49.65 151.00,49.27 152.25,48.88 153.50,48.50 154.75,48.12 156.00,47.73 157.25,47.35 158.50,46.97 159.75,46.58 161.00,46.20 162.25,45.82 163.50,45.43 164.75,45.05 166.00,44.67 167.25,44.28 168.50,43.90 169.75,43.52 171.00,43.13 172.25,42.75 173.50,42.37 174.75,41.98 176.00,41.60 177.25,41.22 178.50,40.83 179.75,40.45 181.00,40.07 182.25,39.68 183.50,39.30 184.75,38.92 186.00,38.53 187.25,38.15 188.50,37.77 189.75,37.38 191.00,37.00" fill="none" stroke="#6a4ce6" stroke-width="2" stroke-linecap="round"/>
<circle cx="116.0" cy="60.0" r="4" fill="#fff" stroke="#6a4ce6" stroke-width="2.5"/>
</svg>