<svg xmlns="http://www.w3.org/2000/svg" viewBox="0 0 420 300" role="img" aria-label="Triangle RST with right angle at T, point L on RS, point K on ST, and segment LK parallel to RT">
  <defs>
    <marker id="arrow" markerWidth="8" markerHeight="8" refX="6" refY="3" orient="auto">
      <path d="M0,0 L6,3 L0,6 Z" fill="#334155"/>
    </marker>
  </defs>
  <rect width="420" height="300" fill="#fafbff" rx="16"/>
  <polygon points="70,240 330,240 330,40" fill="none" stroke="#1e293b" stroke-width="2.5" stroke-linejoin="round"/>
  <line x1="330" y1="240" x2="330" y2="40" stroke="#64748b" stroke-width="1.5" stroke-dasharray="6 5"/>
  <line x1="70" y1="240" x2="330" y2="240" stroke="#64748b" stroke-width="1.5" stroke-dasharray="6 5"/>
  <line x1="188" y1="118" x2="330" y2="168" stroke="#4f46e5" stroke-width="2.5"/>
  <line x1="330" y1="168" x2="330" y2="240" stroke="#0f766e" stroke-width="2.5"/>
  <circle cx="70" cy="240" r="4" fill="#1e293b"/>
  <circle cx="330" cy="240" r="4" fill="#1e293b"/>
  <circle cx="330" cy="40" r="4" fill="#1e293b"/>
  <circle cx="188" cy="118" r="4" fill="#4f46e5"/>
  <circle cx="330" cy="168" r="4" fill="#0f766e"/>
  <text x="52" y="255" font-family="Inter, system-ui, sans-serif" font-size="18" font-weight="700" fill="#1e293b">S</text>
  <text x="342" y="255" font-family="Inter, system-ui, sans-serif" font-size="18" font-weight="700" fill="#1e293b">T</text>
  <text x="342" y="34" font-family="Inter, system-ui, sans-serif" font-size="18" font-weight="700" fill="#1e293b">R</text>
  <text x="172" y="108" font-family="Inter, system-ui, sans-serif" font-size="17" font-weight="700" fill="#4f46e5">L</text>
  <text x="342" y="162" font-family="Inter, system-ui, sans-serif" font-size="17" font-weight="700" fill="#0f766e">K</text>
  <text x="346" y="145" font-family="Inter, system-ui, sans-serif" font-size="14" font-weight="600" fill="#475569">RT</text>
  <text x="346" y="210" font-family="Inter, system-ui, sans-serif" font-size="14" font-weight="600" fill="#475569">KT</text>
  <text x="248" y="108" font-family="Inter, system-ui, sans-serif" font-size="14" font-weight="600" fill="#4f46e5">LK % RT</text>
  <path d="M318 228 L318 240 L330 240" fill="none" stroke="#1e293b" stroke-width="1.5"/>
</svg>
